<svg width="18" height="19" viewBox="0 0 18 19" fill="none" xmlns="http://www.w3.org/2000/svg">
<path d="M9 15.98C6.75 15.98 4.761 14.828 3.6 13.1C3.627 11.3 7.2 10.31 9 10.31C10.8 10.31 14.373 11.3 14.4 13.1C13.805 13.986 13.0013 14.712 12.0596 15.2143C11.1179 15.7165 10.0672 15.9794 9 15.98ZM9 3.2C9.71608 3.2 10.4028 3.48446 10.9092 3.99081C11.4155 4.49716 11.7 5.18392 11.7 5.9C11.7 6.61608 11.4155 7.30284 10.9092 7.80919C10.4028 8.31554 9.71608 8.6 9 8.6C8.28392 8.6 7.59716 8.31554 7.09081 7.80919C6.58446 7.30284 6.3 6.61608 6.3 5.9C6.3 5.18392 6.58446 4.49716 7.09081 3.99081C7.59716 3.48446 8.28392 3.2 9 3.2ZM9 0.5C7.8181 0.5 6.64778 0.732792 5.55585 1.18508C4.46392 1.63738 3.47177 2.30031 2.63604 3.13604C0.948212 4.82387 0 7.11305 0 9.5C0 11.8869 0.948212 14.1761 2.63604 15.864C3.47177 16.6997 4.46392 17.3626 5.55585 17.8149C6.64778 18.2672 7.8181 18.5 9 18.5C11.3869 18.5 13.6761 17.5518 15.364 15.864C17.0518 14.1761 18 11.8869 18 9.5C18 4.523 13.95 0.5 9 0.5Z" fill="#BFBFBF"/>
</svg>
