<svg width="13" height="13" viewBox="0 0 13 13" fill="none" xmlns="http://www.w3.org/2000/svg">
<path d="M6.26026 10.741L3.22551 12.6606C3.09145 12.7502 2.95129 12.7886 2.80504 12.7758C2.65878 12.763 2.53081 12.7118 2.42112 12.6222C2.31143 12.5326 2.22612 12.4205 2.16518 12.2859C2.10424 12.1513 2.09205 12.001 2.12862 11.8352L2.93301 8.2072L0.245614 5.76935C0.123737 5.65418 0.0476851 5.52288 0.0174595 5.37546C-0.0127661 5.22803 -0.00374719 5.08419 0.0445162 4.94394C0.0932671 4.80317 0.166393 4.68799 0.263895 4.59841C0.361397 4.50884 0.495462 4.45125 0.66609 4.42565L4.21272 4.09933L5.58384 0.682498C5.64478 0.528933 5.73935 0.413759 5.86757 0.336976C5.99578 0.260193 6.12668 0.221802 6.26026 0.221802C6.39432 0.221802 6.52522 0.260193 6.65295 0.336976C6.78067 0.413759 6.87525 0.528933 6.93668 0.682498L8.3078 4.09933L11.8544 4.42565C12.0251 4.45125 12.1591 4.50884 12.2566 4.59841C12.3541 4.68799 12.4272 4.80317 12.476 4.94394C12.5247 5.08471 12.534 5.2288 12.5038 5.37622C12.4736 5.52365 12.3973 5.65469 12.2749 5.76935L9.58751 8.2072L10.3919 11.8352C10.4285 12.0015 10.4163 12.152 10.3553 12.2867C10.2944 12.4213 10.2091 12.5331 10.0994 12.6222C9.9897 12.7118 9.86173 12.763 9.71548 12.7758C9.56923 12.7886 9.42907 12.7502 9.295 12.6606L6.26026 10.741Z" fill="#FFC93F"/>
</svg>
